<?xml version="1.0" standalone="no"?>
<!DOCTYPE svg PUBLIC "-//W3C//DTD SVG 20010904//EN"
 "http://www.w3.org/TR/2001/REC-SVG-20010904/DTD/svg10.dtd">
<svg version="1.0" xmlns="http://www.w3.org/2000/svg"
 width="648.000000pt" height="648.000000pt" viewBox="0 0 648.000000 648.000000"
 preserveAspectRatio="xMidYMid meet">
<metadata>
Created by potrace 1.14, written by Peter Selinger 2001-2017
</metadata>
<g transform="translate(0.000000,648.000000) scale(0.100000,-0.100000)"
fill="#000000" stroke="none">
<path d="M1573 6409 c-61 -18 -135 -99 -201 -221 -173 -321 -273 -648 -328
-1083 -14 -103 -18 -258 -23 -755 l-6 -625 -87 -155 c-101 -182 -165 -328
-213 -487 -36 -118 -41 -148 -27 -157 5 -3 71 10 147 30 76 19 140 33 142 31
2 -2 -73 -77 -167 -167 -94 -90 -176 -172 -181 -182 -18 -34 -30 -321 -18
-448 9 -105 34 -254 45 -272 3 -4 36 8 74 27 83 42 215 95 235 95 8 0 -37 -61
-100 -135 -150 -177 -151 -178 -123 -252 35 -96 169 -352 237 -453 233 -349
536 -610 936 -805 307 -149 593 -232 970 -280 241 -31 455 -31 455 -1 0 7 -35
32 -77 56 -196 109 -468 303 -632 449 -194 172 -386 435 -496 680 -117 261
-194 606 -196 881 0 52 -4 104 -8 115 -7 18 -10 17 -26 -14 -29 -57 -72 -191
-90 -281 -11 -53 -20 -161 -24 -285 l-6 -200 -41 60 c-130 191 -247 458 -298
677 -37 162 -49 420 -26 590 26 191 110 364 241 496 167 168 322 224 616 221
96 -1 169 3 175 9 6 6 -7 43 -37 106 -102 210 -92 396 30 581 47 70 91 107
181 150 198 96 429 47 550 -117 70 -95 85 -149 95 -329 4 -86 15 -186 23 -222
48 -206 174 -354 434 -509 56 -34 102 -68 102 -75 0 -7 -19 -37 -43 -66 -73
-89 -92 -145 -92 -267 0 -89 4 -113 24 -160 84 -189 245 -330 413 -361 182
-33 384 70 507 261 132 204 100 438 -81 581 -29 23 -152 90 -273 149 -303 148
-418 227 -507 348 -108 145 -141 308 -98 476 49 192 159 294 362 334 153 30
288 -16 400 -137 70 -76 108 -143 133 -241 32 -122 8 -306 -56 -432 -31 -61
-26 -75 30 -87 68 -14 170 -54 222 -86 200 -124 344 -411 350 -701 1 -46 0
-86 -3 -89 -3 -3 -17 -1 -32 5 -72 27 -108 -5 -126 -111 -41 -251 -124 -408
-267 -505 -88 -60 -131 -65 -236 -26 -203 75 -308 96 -410 81 -34 -5 -138 -31
-230 -59 -205 -60 -307 -75 -420 -60 -217 30 -382 153 -488 365 -58 115 -80
141 -126 154 -74 21 -134 -23 -148 -110 -12 -67 42 -238 108 -344 210 -338
608 -633 1129 -836 76 -30 138 -57 138 -61 0 -5 -40 -68 -88 -140 -135 -203
-208 -328 -293 -503 -71 -147 -137 -310 -153 -377 -11 -47 13 -50 186 -27 471
62 896 217 1240 451 207 140 483 405 606 583 147 211 273 498 326 742 28 127
29 124 -100 314 -64 94 -113 173 -110 176 8 9 118 -23 197 -57 l68 -29 10 48
c17 78 -25 414 -59 481 -11 21 -48 57 -94 90 -42 30 -76 58 -76 63 0 4 32 4
72 0 l71 -6 -5 39 c-11 76 -84 252 -200 483 l-118 234 0 556 c0 693 -15 899
-86 1200 -32 136 -93 344 -103 351 -5 3 -23 43 -40 90 -47 123 -130 285 -186
362 -62 87 -112 121 -186 126 -107 8 -202 -56 -405 -276 -215 -232 -391 -452
-574 -714 -41 -59 -85 -113 -97 -119 -17 -9 -36 -8 -90 5 -100 24 -203 35
-401 42 -186 6 -361 -8 -523 -43 -42 -8 -88 -13 -101 -10 -18 5 -53 46 -120
144 -197 284 -460 603 -668 810 -146 146 -229 183 -337 152z m231 -1016 c80
-177 146 -331 146 -343 0 -25 -34 -60 -146 -147 -43 -34 -142 -124 -219 -200
-140 -137 -140 -138 -146 -108 -18 82 -4 349 31 579 28 191 108 515 142 580
10 18 11 17 28 -10 10 -16 84 -174 164 -351z m3140 227 c82 -286 116 -512 123
-817 4 -148 2 -233 -4 -233 -5 0 -41 32 -79 72 -108 112 -220 214 -325 294
-53 40 -99 80 -103 89 -7 19 10 61 146 360 152 332 150 327 171 359 25 36 26
35 71 -124z m-613 -2562 c38 -11 82 -33 100 -50 23 -20 28 -27 14 -23 -11 4
-74 9 -140 12 -141 7 -244 -11 -344 -57 -75 -35 -87 -37 -101 -10 -17 33 -3
57 53 88 126 71 271 85 418 40z m-149 -1259 c38 -19 40 -22 22 -32 -57 -32
-244 -47 -348 -29 l-38 7 68 32 c38 18 85 37 104 43 50 14 143 4 192 -21z
m315 -215 c7 -18 -55 -157 -131 -291 -89 -159 -74 -160 -152 1 -46 96 -64 144
-58 153 5 8 47 29 94 46 47 18 114 49 150 69 73 41 88 45 97 22z"/>
<path d="M2702 4065 c-121 -62 -167 -196 -108 -320 44 -93 112 -135 218 -135
78 0 134 26 187 86 66 75 76 165 29 259 -43 86 -106 126 -208 132 -56 4 -73 1
-118 -22z"/>
<path d="M4021 4064 c-97 -49 -150 -176 -117 -280 21 -67 83 -137 141 -160 59
-22 158 -15 212 16 107 60 151 195 99 305 -61 130 -209 182 -335 119z"/>
</g>
</svg>
